<svg width="2396" height="1444" viewBox="0 0 2396 1444" fill="none" xmlns="http://www.w3.org/2000/svg">
<path fill-rule="evenodd" clip-rule="evenodd" d="M2380.64 961.213L2395.36 915.026H2112.39L2102.99 935.731C2069.53 1010.9 2016.06 1075.44 1948.43 1122.3C1882.6 1166.82 1804.71 1189.57 1715.75 1189.57C1635.7 1190.41 1556.97 1169.16 1488.22 1128.14C1420.26 1087.05 1364.48 1028.59 1326.61 958.786C1287.57 885.792 1267.15 804.294 1267.15 721.518C1267.15 638.742 1287.57 557.244 1326.61 484.25C1364.47 414.678 1420.28 356.516 1488.22 315.808C1556.86 274.492 1635.64 253.115 1715.75 254.073H1716.28V0.00621073L1715.75 0.00621073C1648.36 -0.269888 1581.25 8.66077 1516.29 26.5505C1458.38 42.1449 1402.79 65.3254 1350.95 95.4898C1242.8 157.924 1153.08 247.853 1090.89 356.155C1079.37 376.404 1069.13 396.805 1059.42 417.813C1055.93 425.397 1052.75 432.982 1049.56 440.566L763.49 1101.14L304.197 40.1261L294.945 18.9664L0 18.9664L21.7663 68.5664L603.238 1403.37L612.491 1424.68H905.008L914.261 1403.44L1069.81 1047.52C1076.33 1061.02 1083.31 1074.44 1090.89 1087.49C1153.03 1195.87 1242.76 1285.86 1350.95 1348.3C1449.81 1404.08 1560.19 1436.36 1673.52 1442.65C1786.86 1448.94 1900.12 1429.06 2004.55 1384.56C2093.37 1345.58 2172.7 1287.83 2237.08 1215.28C2302.29 1141.65 2351.22 1055.07 2380.64 961.213ZM1985.44 721.855C1985.44 870.508 1864.93 991.014 1716.28 991.014C1567.63 991.014 1447.12 870.508 1447.12 721.855C1447.12 573.203 1567.63 452.696 1716.28 452.696C1864.93 452.696 1985.44 573.203 1985.44 721.855Z" fill="white" fill-opacity="0.12"/>
</svg>
