<svg width="128" height="34" viewBox="0 0 128 34" fill="none" xmlns="http://www.w3.org/2000/svg">
<g clip-path="url(#clip0_26_329)">
<path d="M69.018 8.73333C68.7335 8.28894 68.3562 7.91143 67.9121 7.62674C68.3128 7.35184 68.6479 6.99188 68.8936 6.57252C69.2036 6.01958 69.3617 5.39432 69.3517 4.76039C69.359 4.06949 69.1762 3.38989 68.8233 2.79602C68.453 2.19606 67.9181 1.71533 67.2823 1.41114C66.543 1.06201 65.7325 0.890481 64.9153 0.910221H58.6402V14.6281H64.93C65.7816 14.6481 66.6262 14.4693 67.3968 14.1059C68.0552 13.7893 68.61 13.292 68.9967 12.6719C69.3645 12.0518 69.5537 11.3418 69.5431 10.6208C69.5519 9.95433 69.3697 9.29932 69.018 8.73333ZM61.1315 3.20526H64.8155C66.628 3.20526 66.8374 4.14652 66.8374 4.8537C66.8374 5.45283 66.6738 5.89154 66.3466 6.19602C66.0194 6.5005 65.4993 6.65273 64.8155 6.65273H61.1315V3.20526ZM66.4399 11.8698C66.0882 12.171 65.5483 12.3232 64.8351 12.3232H61.1315V8.85938H64.8351C65.5516 8.85938 66.0931 9.00343 66.4448 9.29154C66.7965 9.57965 66.9519 9.97743 66.9519 10.5438C66.9519 11.1397 66.7834 11.5735 66.4399 11.8698Z" fill="white"/>
<path d="M74.2559 14.6231H74.4064L74.4931 14.502L78.9328 8.26018V14.3383V14.6231H79.224H81.0382H81.3293V14.3383V4.94858V4.66211H81.0382H79.0326H78.8805L78.7938 4.78488L74.3557 11.0267V4.94858V4.66211H74.0645H72.2488H71.9592V4.94858V14.3383V14.6231H72.2488H74.2559Z" fill="white"/>
<path d="M93.6718 12.3625V4.6687H85.2374V8.32734C85.2374 10.2442 85.1278 11.6013 84.9102 12.3625H83.6015V16.6972H85.9408V14.6248H92.6707V16.6972H95.0083V12.3625H93.6718ZM91.2802 12.4001H87.274C87.5128 11.3508 87.6339 9.96432 87.6339 8.27169V6.8868H91.2802V12.4001Z" fill="white"/>
<path d="M105.911 7.00459C105.507 6.21814 104.881 5.56721 104.112 5.13188C103.278 4.68235 102.343 4.45675 101.396 4.47709C100.468 4.46537 99.5523 4.69554 98.7396 5.14498C97.9606 5.57919 97.3173 6.22125 96.8813 6.99967C96.4322 7.80875 96.2021 8.72122 96.2139 9.64667C96.2026 10.5715 96.4326 11.4834 96.8813 12.292C97.3191 13.0728 97.9661 13.7158 98.7494 14.1484C99.5655 14.5967 100.483 14.8268 101.414 14.8162C102.472 14.8281 103.509 14.5188 104.388 13.929C105.228 13.3855 105.865 12.5799 106.201 11.6372V11.6274H103.642C103.165 12.2822 102.43 12.5916 101.409 12.5916C100.756 12.6004 100.122 12.3725 99.623 11.9499C99.2109 11.6176 98.9097 11.1677 98.7593 10.66H106.494L106.518 10.4013C106.533 10.2654 106.539 10.0608 106.539 9.79236C106.558 8.82599 106.342 7.86949 105.911 7.00459ZM98.774 8.53188C98.9344 7.97412 99.274 7.48483 99.7404 7.13977C100.207 6.79471 100.774 6.61314 101.354 6.62317C102.011 6.60021 102.653 6.81659 103.163 7.23213C103.566 7.5608 103.84 8.02095 103.938 8.53188H98.774Z" fill="white"/>
<path d="M118.108 7.02924C117.641 6.24618 116.975 5.60109 116.178 5.15982C115.354 4.70157 114.426 4.46522 113.484 4.47392C112.532 4.46415 111.594 4.7004 110.76 5.15982C109.957 5.59878 109.286 6.24413 108.816 7.02924C108.354 7.82265 108.11 8.72483 108.11 9.6435C108.11 10.5622 108.354 11.4643 108.816 12.2577C109.285 13.0422 109.954 13.6874 110.755 14.1272C111.589 14.5858 112.527 14.822 113.479 14.8131C114.421 14.821 115.349 14.5847 116.173 14.1272C116.972 13.6861 117.639 13.0411 118.108 12.2577C118.573 11.4651 118.818 10.5626 118.818 9.6435C118.818 8.72438 118.573 7.82191 118.108 7.02924ZM115.981 11.1479C115.736 11.5874 115.376 11.9526 114.941 12.2054C114.499 12.4609 113.996 12.5932 113.485 12.5884C112.964 12.5942 112.45 12.4621 111.997 12.2054C111.558 11.9545 111.196 11.589 110.95 11.1479C110.698 10.6865 110.566 10.1692 110.566 9.6435C110.566 9.11781 110.698 8.60053 110.95 8.13911C111.197 7.69841 111.559 7.3334 111.998 7.08326C112.452 6.82595 112.965 6.69376 113.487 6.70021C113.997 6.69466 114.5 6.82638 114.943 7.08163C115.377 7.33459 115.736 7.69983 115.981 8.13911C116.234 8.60034 116.366 9.11769 116.366 9.6435C116.366 10.1693 116.234 10.6866 115.981 11.1479Z" fill="white"/>
<path d="M64.5635 23.0339L70.4788 17.5827L71.0153 17.0884H70.2808H67.9301H67.8156L67.7322 17.167L61.1315 23.25V17.3748V17.0884H60.8404H58.9297H58.6402V17.3748V30.5214V30.8062H58.9297H60.8404H61.1315V30.5214V26.2129L62.7608 24.7216L67.7436 30.7015L67.8303 30.8062H67.9677H70.4722H71.0889L70.6963 30.3397L64.5635 23.0339Z" fill="white"/>
<path d="M81.2835 23.2107C80.8157 22.4288 80.1498 21.7845 79.3532 21.3429C78.5291 20.8846 77.6002 20.6482 76.6574 20.657C75.7078 20.6483 74.772 20.8845 73.9402 21.3429C73.1378 21.7812 72.4669 22.426 71.9968 23.2107C71.5325 24.0053 71.2878 24.9093 71.2878 25.8298C71.2878 26.7503 71.5325 27.6543 71.9968 28.449C72.4685 29.2307 73.1391 29.873 73.9402 30.3102C74.7739 30.7682 75.7113 31.0038 76.6623 30.9945C77.6048 31.003 78.5336 30.7673 79.3581 30.3102C80.1548 29.868 80.8207 29.2231 81.2884 28.4408C81.7549 27.6469 82.0008 26.7426 82.0008 25.8216C82.0008 24.9007 81.7549 23.9964 81.2884 23.2025L81.2835 23.2107ZM79.1569 27.3309C78.9111 27.7699 78.5517 28.1346 78.1165 28.3868C77.6736 28.6425 77.1703 28.7748 76.659 28.7698C76.1382 28.776 75.6251 28.6438 75.172 28.3868C74.7332 28.1366 74.3707 27.7716 74.1234 27.3309C73.8723 26.8693 73.7407 26.3521 73.7407 25.8265C73.7407 25.301 73.8723 24.7838 74.1234 24.3222C74.3704 23.8809 74.7329 23.5153 75.172 23.2647C75.6249 23.0072 76.1381 22.875 76.659 22.8816C77.1702 22.8761 77.6735 23.0078 78.1165 23.263C78.5519 23.5164 78.9112 23.8822 79.1569 24.3222C79.4092 24.7834 79.5415 25.3007 79.5415 25.8265C79.5415 26.3523 79.4092 26.8697 79.1569 27.3309Z" fill="white"/>
<path d="M90.8876 20.8452H90.5964V21.13V24.6954H86.209V21.13V20.8452H85.9195H84.1037H83.8125V21.13V30.5214V30.8062H84.1037H85.9195H86.209V30.5214V26.956H90.5964V30.5214V30.8062H90.8876H92.7017H92.9929V30.5214V21.13V20.8452H92.7017H90.8876Z" fill="white"/>
<path d="M94.9248 20.8452H94.6353V21.13V22.821V23.1059H94.9248H97.979V30.5214V30.8062H98.2685H100.084H100.375V30.5214V23.1059H103.428H103.719V22.821V21.13V20.8452H103.428H94.9248Z" fill="white"/>
<path d="M114.225 20.8452H114.03L113.956 21.0204L111.115 27.7451L107.933 21.0106L107.856 20.8452H107.67H105.51H105.043L105.25 21.2577L109.852 30.3593L108.398 33.5989L108.218 34H108.664H110.632H110.822L110.899 33.8281L116.497 21.2446L116.675 20.8452H116.23H114.225Z" fill="white"/>
<path d="M127.373 23.1763C126.974 22.4164 126.377 21.7785 125.646 21.3298C124.907 20.8814 124.057 20.6484 123.192 20.657C122.499 20.6558 121.815 20.8243 121.201 21.1481C120.82 21.3481 120.47 21.6011 120.159 21.8994V20.8518H117.864V34H120.259V29.847C120.563 30.1231 120.903 30.3561 121.27 30.5394C121.868 30.8413 122.529 30.9973 123.199 30.9945C124.063 31.0039 124.913 30.7714 125.653 30.3233C126.381 29.8753 126.975 29.2398 127.373 28.4834C127.786 27.661 128 26.7538 128 25.8339C128 24.914 127.786 24.0068 127.373 23.1845V23.1763ZM125.195 27.3587C124.982 27.7866 124.654 28.147 124.249 28.3999C123.841 28.6498 123.371 28.7781 122.893 28.7698C122.409 28.7757 121.933 28.647 121.517 28.3982C121.104 28.1503 120.77 27.7897 120.554 27.3587C120.323 26.8809 120.204 26.3571 120.204 25.8265C120.204 25.296 120.323 24.7722 120.554 24.2943C120.77 23.8628 121.104 23.5013 121.517 23.2516C121.933 23.0044 122.409 22.8764 122.893 22.8816C123.371 22.8727 123.841 23.0005 124.249 23.2499C124.654 23.5044 124.981 23.8658 125.195 24.2943C125.425 24.7722 125.545 25.296 125.545 25.8265C125.545 26.3571 125.425 26.8809 125.195 27.3587Z" fill="white"/>
<path d="M51.6682 19.7499L51.3508 20.7469C50.7177 22.7727 49.6635 24.6415 48.2574 26.2307C46.8688 27.7967 45.1578 29.0432 43.2419 29.8845C40.9896 30.845 38.5465 31.2741 36.1019 31.1384C33.6573 31.0027 31.2766 30.3059 29.1442 29.102C26.8109 27.754 24.8761 25.8116 23.5365 23.4724C23.373 23.1909 23.2225 22.9011 23.0818 22.6097L19.7267 30.2921L19.5255 30.7521H13.2127L13.0115 30.2921L0.469488 1.48456L0 0.412341H6.3618L6.56301 0.870694L16.4681 23.772L22.6401 9.51393C22.7088 9.35023 22.7775 9.18653 22.8511 9.02284C23.0605 8.5694 23.283 8.12905 23.5316 7.69198C24.8722 5.35441 26.8069 3.41332 29.1393 2.06569C30.2581 1.41494 31.4577 0.914624 32.7071 0.577676C34.1077 0.190026 35.5546 -0.00438805 37.0077 -0.000177181H37.0192V5.48369H37.0077C35.28 5.46335 33.5807 5.92475 32.1002 6.81619C30.6366 7.69744 29.4353 8.95443 28.6208 10.4568C27.7587 12.0255 27.3163 13.7905 27.3366 15.5806C27.3166 17.3691 27.7589 19.1324 28.6208 20.6994C29.4369 22.2032 30.6377 23.463 32.1002 24.3498C33.5831 25.2349 35.2812 25.6937 37.0077 25.6758C38.9249 25.6758 40.6066 25.1847 42.0249 24.2238C43.4837 23.2124 44.637 21.8194 45.3587 20.1968L45.5632 19.7499H51.6682Z" fill="white"/>
<path d="M37.0192 21.3904C40.2255 21.3904 42.8248 18.7893 42.8248 15.5807C42.8248 12.3722 40.2255 9.77112 37.0192 9.77112C33.8128 9.77112 31.2136 12.3722 31.2136 15.5807C31.2136 18.7893 33.8128 21.3904 37.0192 21.3904Z" fill="white"/>
<path d="M37.0192 19.5946C39.2344 19.5946 41.0303 17.7976 41.0303 15.5808C41.0303 13.364 39.2344 11.5669 37.0192 11.5669C34.8039 11.5669 33.0081 13.364 33.0081 15.5808C33.0081 17.7976 34.8039 19.5946 37.0192 19.5946Z" fill="white"/>
<path d="M37.0192 17.6106C38.1395 17.6106 39.0476 16.7018 39.0476 15.5808C39.0476 14.4597 38.1395 13.5509 37.0192 13.5509C35.8989 13.5509 34.9907 14.4597 34.9907 15.5808C34.9907 16.7018 35.8989 17.6106 37.0192 17.6106Z" fill="white"/>
</g>
<defs>
<clipPath id="clip0_26_329">
<rect width="128" height="34" fill="white"/>
</clipPath>
</defs>
</svg>
