<svg preserveAspectRatio="xMinYMin slice" viewBox="0 0 34 34" fill="none" stroke="white"  xmlns="http://www.w3.org/2000/svg">
<path d="M28.3333 19.8333V24.0833C28.3333 27.2129 25.7963 29.75 22.6667 29.75H14.1973C12.3965 29.75 10.7028 28.894 9.63479 27.444L4.73934 20.7978C3.98803 19.7778 4.17602 18.3466 5.16524 17.5552C6.17321 16.7489 7.62642 16.8298 8.53857 17.7432L11.3333 20.5417V18.4167H11.3389L11.3333 15.5833L11.3581 9.20833C11.3581 8.03473 12.3095 7.08333 13.4831 7.08333C14.6567 7.08333 15.6081 8.03473 15.6081 9.20833V15.5833V6.375C15.6081 5.20139 16.5595 4.25 17.7331 4.25C18.9067 4.25 19.8581 5.20139 19.8581 6.375V15.5833V7.79167C19.8581 6.61806 20.8095 5.66667 21.9831 5.66667C23.1567 5.66667 24.1081 6.61806 24.1081 7.79167V15.5833V10.625C24.1081 9.45139 25.0595 8.5 26.2331 8.5C27.4067 8.5 28.3581 9.45139 28.3581 10.625L28.3417 19.8333H28.3333Z" stroke-linecap="square" stroke-linejoin="round"/>
</svg>
