<svg width="36" height="36" viewBox="0 0 36 36" fill="none" xmlns="http://www.w3.org/2000/svg">
<path d="M1.5 27C1.5 23.625 6 23.625 8.25 21.375C9.375 20.25 6 20.25 6 14.625C6 10.8754 7.49962 9 10.5 9C13.5004 9 15 10.8754 15 14.625C15 20.25 11.625 20.25 12.75 21.375C15 23.625 19.5 23.625 19.5 27" stroke="white" stroke-linecap="round"/>
<path d="M17.9921 24.3647C18.8426 23.7785 19.9467 23.3565 21.0032 22.8477C21.8292 22.4498 22.6261 21.9989 23.25 21.375C24.375 20.25 21 20.25 21 14.625C21 10.8754 22.4996 9 25.5 9C28.5004 9 30 10.8754 30 14.625C30 20.25 26.625 20.25 27.75 21.375C30 23.625 34.5 23.625 34.5 27" stroke="white" stroke-linecap="round"/>
</svg>
