<svg preserveAspectRatio="xMinYMin slice" viewBox="0 0 34 34" fill="none" fill="#ffffff" xmlns="http://www.w3.org/2000/svg">
<path d="M12.5005 26.3331L12.6298 25.8501C12.5118 25.8185 12.3862 25.8312 12.2769 25.8859L12.5005 26.3331ZM5.66667 29.75L5.17169 29.6793C5.14539 29.8634 5.22344 30.0469 5.37431 30.1556C5.52518 30.2644 5.72393 30.2804 5.89027 30.1972L5.66667 29.75ZM6.59207 23.2721L7.08705 23.3429C7.1111 23.1745 7.04793 23.0055 6.91937 22.8942L6.59207 23.2721ZM17 27.4167C24.9903 27.4167 31.6667 22.2171 31.6667 15.5833H30.6667C30.6667 21.4681 24.6578 26.4167 17 26.4167V27.4167ZM12.3712 26.8161C13.8272 27.206 15.3837 27.4167 17 27.4167V26.4167C15.4705 26.4167 14.001 26.2173 12.6298 25.8501L12.3712 26.8161ZM5.89027 30.1972L12.7241 26.7803L12.2769 25.8859L5.44306 29.3028L5.89027 30.1972ZM6.0971 23.2014L5.17169 29.6793L6.16164 29.8207L7.08705 23.3429L6.0971 23.2014ZM2.33333 15.5833C2.33333 18.72 3.84162 21.5519 6.26477 23.6501L6.91937 22.8942C4.6762 20.9518 3.33333 18.3815 3.33333 15.5833H2.33333ZM17 3.75C9.0097 3.75 2.33333 8.94961 2.33333 15.5833H3.33333C3.33333 9.6986 9.34222 4.75 17 4.75V3.75ZM31.6667 15.5833C31.6667 8.94961 24.9903 3.75 17 3.75V4.75C24.6578 4.75 30.6667 9.6986 30.6667 15.5833H31.6667Z"/>
</svg>
